<svg xmlns="http://www.w3.org/2000/svg" viewBox="0 0 1024 1024" width="1024" height="1024">
  <defs>
    <linearGradient id="ground" x1="0" y1="0" x2="0.2" y2="1">
      <stop offset="0" stop-color="#3E1478"/>
      <stop offset="0.5" stop-color="#170A2C"/>
      <stop offset="1" stop-color="#06050A"/>
    </linearGradient>
    <radialGradient id="key" cx="0.5" cy="0.06" r="0.72">
      <stop offset="0" stop-color="#A855F7" stop-opacity="0.38"/>
      <stop offset="1" stop-color="#A855F7" stop-opacity="0"/>
    </radialGradient>
    <radialGradient id="vig" cx="0.5" cy="0.48" r="0.75">
      <stop offset="0.6" stop-color="#000" stop-opacity="0"/>
      <stop offset="1" stop-color="#000" stop-opacity="0.42"/>
    </radialGradient>
    <linearGradient id="pearlL" x1="0.1" y1="0" x2="0.8" y2="1">
      <stop offset="0" stop-color="#F2F5FD"/><stop offset="1" stop-color="#BFD0F2"/>
    </linearGradient>
    <linearGradient id="pearlR" x1="0.1" y1="0" x2="0.8" y2="1">
      <stop offset="0" stop-color="#FFFFFF"/><stop offset="1" stop-color="#DCE5F8"/>
    </linearGradient>
    <linearGradient id="sheen" x1="0" y1="0" x2="0" y2="1">
      <stop offset="0" stop-color="#fff" stop-opacity="0.9"/>
      <stop offset="0.34" stop-color="#fff" stop-opacity="0"/>
    </linearGradient>
    <filter id="shL" x="-40%" y="-40%" width="180%" height="200%">
      <feDropShadow dx="-6" dy="18" stdDeviation="18" flood-color="#04020A" flood-opacity="0.55"/>
    </filter>
    <filter id="shR" x="-40%" y="-40%" width="180%" height="200%">
      <feDropShadow dx="-16" dy="34" stdDeviation="26" flood-color="#04020A" flood-opacity="0.72"/>
    </filter>
    <mask id="cut"><path d="M 236 462 C 268 412, 372 382, 512 382 C 652 382, 756 412, 788 462 C 802 482, 796 508, 774 522 C 736 566, 684 592, 630 592 C 590 592, 554 572, 512 572 C 470 572, 434 592, 394 592 C 340 592, 288 566, 250 522 C 228 508, 222 482, 236 462 Z" fill="#fff"/>
  <ellipse cx="396" cy="476" rx="64" ry="41" transform="rotate(-12 396 476)" fill="#000"/>
  <ellipse cx="628" cy="476" rx="64" ry="41" transform="rotate(12 628 476)" fill="#000"/></mask>
    <clipPath id="halfL">
      <rect x="-200" y="-200" width="699" height="1424" transform="rotate(-10 512 500)"/>
    </clipPath>
    <clipPath id="halfR">
      <rect x="525" y="-200" width="900" height="1424" transform="rotate(-10 512 500)"/>
    </clipPath></defs>
  <g>
    <rect width="1024" height="1024" fill="url(#ground)"/>
    <rect width="1024" height="1024" fill="url(#key)"/>
    <g transform="translate(0 28)">
      <g filter="url(#shL)" transform="rotate(-7 512 500)">
        <g mask="url(#cut)"><g clip-path="url(#halfL)">
          <path d="M 236 462 C 268 412, 372 382, 512 382 C 652 382, 756 412, 788 462 C 802 482, 796 508, 774 522 C 736 566, 684 592, 630 592 C 590 592, 554 572, 512 572 C 470 572, 434 592, 394 592 C 340 592, 288 566, 250 522 C 228 508, 222 482, 236 462 Z" fill="url(#pearlL)"/>
          <path d="M 236 462 C 268 412, 372 382, 512 382 C 652 382, 756 412, 788 462 C 802 482, 796 508, 774 522 C 736 566, 684 592, 630 592 C 590 592, 554 572, 512 572 C 470 572, 434 592, 394 592 C 340 592, 288 566, 250 522 C 228 508, 222 482, 236 462 Z" fill="url(#sheen)"/>
        </g></g>
      </g>
      <g filter="url(#shR)" transform="translate(40 -22) rotate(8 512 500)">
        <g mask="url(#cut)"><g clip-path="url(#halfR)">
          <path d="M 236 462 C 268 412, 372 382, 512 382 C 652 382, 756 412, 788 462 C 802 482, 796 508, 774 522 C 736 566, 684 592, 630 592 C 590 592, 554 572, 512 572 C 470 572, 434 592, 394 592 C 340 592, 288 566, 250 522 C 228 508, 222 482, 236 462 Z" fill="url(#pearlR)"/>
          <path d="M 236 462 C 268 412, 372 382, 512 382 C 652 382, 756 412, 788 462 C 802 482, 796 508, 774 522 C 736 566, 684 592, 630 592 C 590 592, 554 572, 512 572 C 470 572, 434 592, 394 592 C 340 592, 288 566, 250 522 C 228 508, 222 482, 236 462 Z" fill="url(#sheen)"/>
        </g></g>
      </g>
    </g>
    <rect width="1024" height="1024" fill="url(#vig)"/>
  </g>
</svg>