<svg xmlns="http://www.w3.org/2000/svg" viewBox="0 0 512 512">
  <defs>
    <linearGradient id="g" x1="0" y1="0" x2="1" y2="1">
      <stop offset="0" stop-color="#B429E0"/><stop offset="1" stop-color="#8B5CF6"/>
    </linearGradient>
  </defs>
  <rect width="512" height="512" rx="118" fill="#0B0910"/>
  <path d="M96 196c0-24 19-43 43-43h234c24 0 43 19 43 43v40c0 62-50 112-112 112h-6c-21 0-40-11-50-29-4-7-14-7-18 0-10 18-29 29-50 29h-6c-62 0-112-50-112-112z" fill="url(#g)"/>
  <circle cx="186" cy="236" r="26" fill="#0B0910"/>
  <circle cx="326" cy="236" r="26" fill="#0B0910"/>
  <path d="M150 400c40-28 172-28 212 0" stroke="#C7E89C" stroke-width="26" stroke-linecap="round" fill="none"/>
</svg>
